<svg xmlns="http://www.w3.org/2000/svg" viewBox="0 0 120 120" role="img" aria-label="JavaScript Logo">
  <defs>
    <linearGradient id="bg" x1="0" y1="0" x2="1" y2="1">
      <stop offset="0%" stop-color="#f7df1e"/>
      <stop offset="100%" stop-color="#ffd95a"/>
    </linearGradient>
  </defs>
  <rect x="6" y="6" width="108" height="108" rx="18" fill="url(#bg)" stroke="#111" stroke-width="4"/>
  <path d="M43 81c2 3 4 6 9 6 4 0 7-2 7-5 0-4-3-5-8-7l-3-1c-8-3-13-7-13-15 0-7 6-13 14-13 6 0 11 2 14 8l-8 5c-2-3-3-4-6-4-3 0-5 2-5 4 0 3 2 4 6 6l3 1c10 4 15 8 15 16 0 9-7 14-16 14-9 0-15-4-18-10z" fill="#111"/>
  <path d="M70 82c2 3 4 5 8 5 3 0 5-1 5-6V47h10v34c0 11-7 16-16 16-8 0-13-4-16-10z" fill="#111"/>
</svg>
